<svg id="vector" xmlns="http://www.w3.org/2000/svg" width="36" height="36" viewBox="0 0 24 24"><path fill="#113293" d="m18.5,0L7.5,0c-1.956,0 -3.624,1.254 -4.243,3h-1.757c-0.276,0 -0.5,0.224 -0.5,0.5s0.224,0.5 0.5,0.5h1.528c-0.018,0.164 -0.028,0.331 -0.028,0.5v2.5h-1.5c-0.276,0 -0.5,0.224 -0.5,0.5s0.224,0.5 0.5,0.5h1.5v3.5h-1.5c-0.276,0 -0.5,0.224 -0.5,0.5s0.224,0.5 0.5,0.5h1.5v3.5h-1.5c-0.276,0 -0.5,0.224 -0.5,0.5s0.224,0.5 0.5,0.5h1.5v2.5c0,0.169 0.01,0.336 0.028,0.5h-1.528c-0.276,0 -0.5,0.224 -0.5,0.5s0.224,0.5 0.5,0.5h1.757c0.619,1.746 2.287,3 4.243,3h11c2.481,0 4.5,-2.019 4.5,-4.5L23,4.5c0,-2.481 -2.019,-4.5 -4.5,-4.5ZM22,19.5c0,1.93 -1.57,3.5 -3.5,3.5L7.5,23c-1.93,0 -3.5,-1.57 -3.5,-3.5L4,4.5c0,-1.93 1.57,-3.5 3.5,-3.5h11c1.93,0 3.5,1.57 3.5,3.5v15ZM13,12c1.654,0 3,-1.346 3,-3s-1.346,-3 -3,-3 -3,1.346 -3,3 1.346,3 3,3ZM13,7c1.103,0 2,0.897 2,2s-0.897,2 -2,2 -2,-0.897 -2,-2 0.897,-2 2,-2ZM18,18v0.5c0,0.276 -0.224,0.5 -0.5,0.5s-0.5,-0.224 -0.5,-0.5v-0.5c0,-2.206 -1.794,-4 -4,-4s-4,1.794 -4,4v0.5c0,0.276 -0.224,0.5 -0.5,0.5s-0.5,-0.224 -0.5,-0.5v-0.5c0,-2.757 2.243,-5 5,-5s5,2.243 5,5Z" id="path_0"/></svg>