<svg id="vector" xmlns="http://www.w3.org/2000/svg" width="120" height="90" viewBox="0 0 861 599"><path fill="#FFFFFF" d="M612,600C408,600 204.5,600 1,600C1,400.33 1,200.67 1,1C288,1 575,1 862,1C862,200.67 862,400.33 862,600C778.83,600 695.67,600 612,600M308.72,394.92C309.21,395.36 309.77,395.75 310.18,396.25C327.83,417.52 345.47,438.79 363.11,460.06C367.33,465.15 371.58,470.21 375.95,475.44C528.01,386.36 679.66,297.52 831.31,208.68C831.23,208.42 831.15,208.16 831.07,207.91C826.02,208.71 820.97,209.51 815.13,210.31C781.22,215.21 747.31,220.13 713.4,225.02C672.73,230.87 632.06,236.71 591.39,242.55C581.26,244.01 571.12,245.46 560.69,246.96C560.96,245.03 561.06,243.71 561.34,242.43C568.73,207.8 576.14,173.17 583.56,138.54C584.82,132.68 585.06,127.01 580.97,121.27C578.1,116.46 573.42,114.37 568.3,113.27C547.43,108.77 526.52,104.43 505.63,99.99C461.26,90.54 416.89,81.07 372.52,71.61C319.41,60.28 266.31,48.94 213.2,37.62C208.22,36.56 203.68,37.57 199.03,40.98C196.43,45.09 192.42,48.89 191.44,53.36C178.03,114.78 164.99,176.29 151.96,237.8C149.29,250.4 155.34,259.38 167.87,262.06C205.76,270.15 243.65,278.24 282.49,286.54C280.17,287.12 278.77,287.62 277.32,287.83C239.27,293.28 201.21,298.67 163.17,304.2C157.19,305.07 151.3,306.6 144.76,307.97C144.24,308.39 143.68,308.76 143.21,309.22C114.26,338.22 85.32,367.22 56.39,396.25C55.52,397.12 54.86,398.21 53.23,400.33C64.66,397.52 74.73,395.04 84.8,392.57C110.23,386.35 135.67,380.14 161.57,374.53C164.9,388.57 168.15,402.64 171.58,416.66C173.57,424.8 175.83,432.87 178.77,441.06C179.74,440.89 180.76,440.87 181.68,440.54C219.61,427.05 257.53,413.56 295.42,400C299.72,398.46 303.86,396.47 308.72,394.92M170.45,485.92C173.35,483.59 174.07,480.7 172.11,477.55C170.07,474.29 166.93,474.24 163.72,475.51C133.56,487.41 103.39,499.3 73.33,511.42C71.44,512.19 69.39,514.75 69.05,516.75C68.11,522.23 72.59,524.73 78.88,522.26C109.2,510.32 139.48,498.28 170.45,485.92M222.06,494.69C208.91,499.88 195.75,505.03 182.62,510.27C178.33,511.99 176.55,515.43 178.17,518.88C180.04,522.88 183.42,522.99 187.1,521.76C188.04,521.45 188.95,521.02 189.87,520.65C207.5,513.69 225.14,506.73 242.76,499.76C253.59,495.48 264.4,491.18 275.22,486.87C279.08,485.34 280.77,482.51 279.3,478.56C277.85,474.66 274.56,474.31 270.99,475.26C270.03,475.51 269.14,475.99 268.21,476.36C253.05,482.35 237.9,488.34 222.06,494.69M125.73,453.18C127.75,452.42 129.8,451.72 131.78,450.86C135.12,449.42 136.79,446.82 135.78,443.27C134.76,439.68 131.91,438.4 128.36,439C126.58,439.3 124.82,439.91 123.14,440.58C108.62,446.35 94.12,452.17 79.61,457.96C74.93,459.83 73.06,462.86 74.35,466.58C75.7,470.47 79.29,471.68 84.27,469.71C97.87,464.34 111.45,458.9 125.73,453.18M579.82,368.29C595.54,359.08 611.27,349.87 626.99,340.66C626.86,340.05 626.73,339.45 626.59,338.85C625.2,339.04 623.59,338.84 622.46,339.49C614.38,344.07 606.39,348.83 598.37,353.54C587.49,359.92 576.58,366.25 565.76,372.74C564.64,373.42 564.08,375.02 563.26,376.2C564.7,375.95 566.33,376.05 567.56,375.4C571.52,373.31 575.34,370.95 579.82,368.29M522.45,397.99C512.29,404.1 512.29,404.1 513.81,406.95C520.55,403.01 527.33,399.13 533.97,395.05C534.85,394.51 535.09,392.92 535.62,391.82C535.17,391.58 534.71,391.34 534.26,391.1C530.54,393.28 526.81,395.46 522.45,397.99z" stroke="#00000000" id="path_0"/><path fill="#243E8D" d="M177.97,440.97C175.83,432.87 173.57,424.8 171.58,416.66C168.15,402.64 164.9,388.57 161.33,373.82C160.37,369.88 159.69,366.63 158.91,363.4C154.41,344.87 149.88,326.35 145.36,307.82C151.3,306.6 157.19,305.07 163.17,304.2C201.21,298.67 239.27,293.28 277.32,287.83C278.77,287.62 280.17,287.12 282.49,286.54C243.65,278.24 205.76,270.15 167.87,262.06C155.34,259.38 149.29,250.4 151.96,237.8C164.99,176.29 178.03,114.78 191.44,53.36C192.42,48.89 196.43,45.09 199.67,41.04C204.42,45.86 208.64,50.53 212.61,55.4C228.11,74.4 243.54,93.46 258.99,112.51C271.41,127.82 283.74,143.21 296.28,158.43C305.87,170.07 315.19,182.01 325.59,192.89C346.09,214.34 379.64,220.49 406.95,208.87C419.31,203.61 431.09,196.98 443.13,190.95C484.08,170.47 525.02,149.98 565.96,129.5C571,126.98 576.04,124.47 581.08,121.95C585.06,127.01 584.82,132.68 583.56,138.54C576.14,173.17 568.73,207.8 561.34,242.43C561.06,243.71 560.96,245.03 560.69,246.96C571.12,245.46 581.26,244.01 591.39,242.55C632.06,236.71 672.73,230.87 713.4,225.02C747.31,220.13 781.22,215.21 815.41,210.64C815.16,211.3 814.68,211.79 814.1,211.93C799.45,215.35 784.77,218.66 770.14,222.14C722.04,233.59 673.96,245.13 625.85,256.57C592.55,264.49 559.21,272.27 525.9,280.18C472.33,292.91 418.77,305.7 365.19,318.45C344.44,323.38 323.65,328.18 302.92,333.21C290.57,336.2 278.3,339.53 265.68,342.87C246.25,364.34 227.09,385.62 208.01,406.96C197.93,418.24 187.98,429.63 177.97,440.97z" stroke="#00000000" id="path_1"/><path fill="#5274B8" d="M265.99,342.7C278.3,339.53 290.57,336.2 302.92,333.21C323.65,328.18 344.44,323.38 365.19,318.45C418.77,305.7 472.33,292.91 525.9,280.18C559.21,272.27 592.55,264.49 625.85,256.57C673.96,245.13 722.04,233.59 770.14,222.14C784.77,218.66 799.45,215.35 814.1,211.93C814.68,211.79 815.16,211.3 815.81,210.64C820.97,209.51 826.02,208.71 831.07,207.91C831.15,208.16 831.23,208.42 831.31,208.68C679.66,297.52 528.01,386.36 375.95,475.44C371.58,470.21 367.33,465.15 363.11,460.06C345.47,438.79 327.83,417.52 310.18,396.25C309.77,395.75 309.21,395.36 308.36,394.48C306.16,391.68 304.37,389.28 302.47,386.98C290.32,372.21 278.15,357.46 265.99,342.7z" stroke="#00000000" id="path_2"/><path fill="#3C5BA9" d="M581.02,121.61C576.04,124.47 571,126.98 565.96,129.5C525.02,149.98 484.08,170.47 443.13,190.95C431.09,196.98 419.31,203.61 406.95,208.87C379.64,220.49 346.09,214.34 325.59,192.89C315.19,182.01 305.87,170.07 296.28,158.43C283.74,143.21 271.41,127.82 258.99,112.51C243.54,93.46 228.11,74.4 212.61,55.4C208.64,50.53 204.42,45.86 199.98,40.92C203.68,37.57 208.22,36.56 213.2,37.62C266.31,48.94 319.41,60.28 372.52,71.61C416.89,81.07 461.26,90.54 505.63,99.99C526.52,104.43 547.43,108.77 568.3,113.27C573.42,114.37 578.1,116.46 581.02,121.61z" stroke="#00000000" id="path_3"/><path fill="#B9C6E2" d="M265.68,342.87C278.15,357.46 290.32,372.21 302.47,386.98C304.37,389.28 306.16,391.68 308.04,394.36C303.86,396.47 299.72,398.46 295.42,400C257.53,413.56 219.61,427.05 181.68,440.54C180.76,440.87 179.74,440.89 178.37,441.02C187.98,429.63 197.93,418.24 208.01,406.96C227.09,385.62 246.25,364.34 265.68,342.87z" stroke="#00000000" id="path_4"/><path fill="#BAC7E3" d="M145.06,307.9C149.88,326.35 154.41,344.87 158.91,363.4C159.69,366.63 160.37,369.88 161.1,373.52C135.67,380.14 110.23,386.35 84.8,392.57C74.73,395.04 64.66,397.52 53.23,400.33C54.86,398.21 55.52,397.12 56.39,396.25C85.32,367.22 114.26,338.22 143.21,309.22C143.68,308.76 144.24,308.39 145.06,307.9z" stroke="#00000000" id="path_5"/><path fill="#3E5584" d="M170.11,486.1C139.48,498.28 109.2,510.32 78.88,522.26C72.59,524.73 68.11,522.23 69.05,516.75C69.39,514.75 71.44,512.19 73.33,511.42C103.39,499.3 133.56,487.41 163.72,475.51C166.93,474.24 170.07,474.29 172.11,477.55C174.07,480.7 173.35,483.59 170.11,486.1z" stroke="#00000000" id="path_6"/><path fill="#3E5584" d="M222.4,494.51C237.9,488.34 253.05,482.35 268.21,476.36C269.14,475.99 270.03,475.51 270.99,475.26C274.56,474.31 277.85,474.66 279.3,478.56C280.77,482.51 279.08,485.34 275.22,486.87C264.4,491.18 253.59,495.48 242.76,499.76C225.14,506.73 207.5,513.69 189.87,520.65C188.95,521.02 188.04,521.45 187.1,521.76C183.42,522.99 180.04,522.88 178.17,518.88C176.55,515.43 178.33,511.99 182.62,510.27C195.75,505.03 208.91,499.88 222.4,494.51z" stroke="#00000000" id="path_7"/><path fill="#ABBBDC" d="M125.38,453.34C111.45,458.9 97.87,464.34 84.27,469.71C79.29,471.68 75.7,470.47 74.35,466.58C73.06,462.86 74.93,459.83 79.61,457.96C94.12,452.17 108.62,446.35 123.14,440.58C124.82,439.91 126.58,439.3 128.36,439C131.91,438.4 134.76,439.68 135.78,443.27C136.79,446.82 135.12,449.42 131.78,450.86C129.8,451.72 127.75,452.42 125.38,453.34z" stroke="#00000000" id="path_8"/><path fill="#5E7DBC" d="M579.52,368.49C575.34,370.95 571.52,373.31 567.56,375.4C566.33,376.05 564.7,375.95 563.26,376.2C564.08,375.02 564.64,373.42 565.76,372.74C576.58,366.25 587.49,359.92 598.37,353.54C606.39,348.83 614.38,344.07 622.46,339.49C623.59,338.84 625.2,339.04 626.59,338.85C626.73,339.45 626.86,340.05 626.99,340.66C611.27,349.87 595.54,359.08 579.52,368.49z" stroke="#00000000" id="path_9"/><path fill="#5F7EBC" d="M522.77,397.81C526.81,395.46 530.54,393.28 534.26,391.1C534.71,391.34 535.17,391.58 535.62,391.82C535.09,392.92 534.85,394.51 533.97,395.05C527.33,399.13 520.55,403.01 513.81,406.95C512.29,404.1 512.29,404.1 522.77,397.81z" stroke="#00000000" id="path_10"/></svg>