<svg id="vector" xmlns="http://www.w3.org/2000/svg" width="24" height="24" viewBox="0 0 24 24"><path fill="#FFFFFF" d="m4,6.76c0,-2.18 1.747,-4.273 3.701,-4.741 -0.558,-0.509 -1.201,-1.256 -1.201,-2.02h4c0,0.764 -0.644,1.51 -1.201,2.02 1.954,0.468 3.701,2.561 3.701,4.741 0,1.237 -1.007,2.24 -2.25,2.24h-4.5c-1.243,0 -2.25,-1.003 -2.25,-2.24ZM23.016,14.467l-8.335,9.532L3.5,23.999c-1.93,0 -3.5,-1.57 -3.5,-3.5v-6c0,-1.93 1.57,-3.5 3.5,-3.5h8.858c0.942,0 1.802,0.36 2.449,0.949l2.438,-2.679c0.698,-0.768 1.654,-1.217 2.69,-1.265 1.033,-0.047 2.029,0.309 2.797,1.008 1.565,1.427 1.692,3.874 0.283,5.455ZM20.712,11.229c-0.173,-0.158 -0.405,-0.239 -0.636,-0.229 -0.236,0.011 -0.453,0.113 -0.612,0.288l-3.497,3.843c-0.218,1.586 -1.476,2.885 -3.095,3.116l-5.16,0.737 -0.424,-2.971 5.161,-0.737c0.314,-0.044 0.551,-0.317 0.551,-0.635 0,-0.354 -0.288,-0.643 -0.642,-0.643L3.5,13.998c-0.276,0 -0.5,0.225 -0.5,0.5v6c0,0.275 0.224,0.5 0.5,0.5h9.819l7.447,-8.518c0.33,-0.371 0.302,-0.928 -0.055,-1.252ZM16,7.689c0.831,-0.817 1.866,-1.359 3,-1.577v-2.093h2.484l-3.157,-3.65c-0.443,-0.494 -1.217,-0.494 -1.66,0l-3.183,3.65h2.516v3.669Z" id="path_0"/></svg>