<svg id="vector" xmlns="http://www.w3.org/2000/svg" width="90" height="90" viewBox="0 0 160 160"><path fill="#DCB765FF" d="M123.37,80c-0.31,0.1 -0.63,0.18 -1,0.25a13.52,13.52 0,0 1,13.47 -14.91C135.55,72.33 129.94,78 123.37,80Z" id="path_0"/><path fill="#DCB765FF" d="M151.81,79.22v6.42c-11.87,0.41 -14.15,-8.69 -13.31,-20.28h13.3V72a9,9 0,0 1,-6.38 -2.41C144.91,75.11 146.4,79.74 151.81,79.22Z" id="path_1"/><path fill="#DCB765FF" d="M146,88c-6.68,8.6 -20.55,5.05 -23.3,-5.43A23.58,23.58 0,0 1,146 88Z" id="path_2"/><path fill="#FFFFFF" d="M30.79,94a10.56,10.56 0,0 1,8 -3.28,10.59 10.59,0 0,1 8,3.28 12.52,12.52 0,0 1,0 16.56,10.55 10.55,0 0,1 -8,3.28 10.58,10.58 0,0 1,-8 -3.28,12.5 12.5,0 0,1 0,-16.56ZM34,108a6.67,6.67 0,0 0,9.64 0,9.23 9.23,0 0,0 0,-11.4 6.67,6.67 0,0 0,-9.64 0A9.27,9.27 0,0 0,34 108Z" id="path_3"/><path fill="#FFFFFF" d="M83.8,105.69 L87.46,107a9.59,9.59 0,0 1,-3.53 5,10.16 10.16,0 0,1 -6.24,1.92 10.61,10.61 0,0 1,-7.76 -3.14,11.38 11.38,0 0,1 -3.19,-8.49A11.52,11.52 0,0 1,69.81 94a10.46,10.46 0,0 1,15 -0.16,12 12,0 0,1 2.76,8.3 8.48,8.48 0,0 1,-0.09 1.36H71.13a6.54,6.54 0,0 0,1.92 4.75,6.33 6.33,0 0,0 4.64,1.86A5.9,5.9 0,0 0,83.8 105.69ZM71.26,100h11.9a5.48,5.48 0,0 0,-6 -5.56A5.58,5.58 0,0 0,73 96.12,5.89 5.89,0 0,0 71.26,100Z" id="path_4"/><path fill="#FFFFFF" d="M95.65,113.15H91.4v-31h4.25Z" id="path_5"/><path fill="#FFFFFF" d="M99.91,107.32a5.9,5.9 0,0 1,1.81 -4.51,8.44 8.44,0 0,1 4.79,-2.1l5.88,-0.86c1.12,-0.15 1.68,-0.69 1.68,-1.63a3.62,3.62 0,0 0,-1.18 -2.8,5 5,0 0,0 -3.53,-1.09 4.82,4.82 0,0 0,-3.44 1.2,5 5,0 0,0 -1.49,3.19l-4.07,-1a7.11,7.11 0,0 1,2.85 -5.09,9.6 9.6,0 0,1 6.06,-2q4.62,0 6.84,2.24a7.81,7.81 0,0 1,2.21 5.72v10.91a21.79,21.79 0,0 0,0.27 3.57h-4.16a17.9,17.9 0,0 1,-0.23 -2.94,8.06 8.06,0 0,1 -2.64,2.54 8.16,8.16 0,0 1,-4.37 1.08,7.35 7.35,0 0,1 -5.25,-1.92A6.08,6.08 0,0 1,99.91 107.32ZM107.78,110.26a6.58,6.58 0,0 0,4.57 -1.54c1.15,-1 1.72,-2.65 1.72,-4.89v-1l-6.65,1a4.2,4.2 0,0 0,-2.31 1,2.94 2.94,0 0,0 -0.86,2.22 3,3 0,0 0,1 2.22A3.52,3.52 0,0 0,107.78 110.26Z" id="path_6"/><path fill="#FFFFFF" d="M66.28,109.9v4l-0.76,0.21a13.38,13.38 0,0 1,-3.67 0.49c-4.91,0 -7.73,-2.77 -7.73,-7.59V93.53h-3.8V89.38h3.8V82.17H58.5v7.21h7v4.15h-7V107c0,2.52 1.07,3.54 3.71,3.54a14.66,14.66 0,0 0,2.83 -0.34Z" id="path_7"/></svg>