<svg id="vector" xmlns="http://www.w3.org/2000/svg" width="24" height="24" viewBox="0 0 24 24"><path fill="#FFFFFF" d="M16.508,9.499c-1.105,0 -2,-0.895 -2,-2L14.508,1.663c0,-0.951 0.874,-1.659 1.808,-1.475 3.782,0.743 6.762,3.721 7.507,7.503 0.184,0.933 -0.524,1.808 -1.475,1.808h-5.84ZM13.5,11.5h-1L12.5,5.673c0,-1.068 -0.485,-2.054 -1.332,-2.703 -0.862,-0.662 -1.964,-0.88 -3.024,-0.595C2.853,3.794 -0.542,8.795 0.071,14.266c0.558,4.973 4.563,9.03 9.524,9.647 0.468,0.058 0.938,0.087 1.405,0.087 0.583,0 1.163,-0.045 1.734,-0.136 0.818,-0.129 1.376,-0.898 1.247,-1.716s-0.901,-1.382 -1.716,-1.247c-0.751,0.12 -1.526,0.13 -2.299,0.034 -3.601,-0.447 -6.508,-3.393 -6.913,-7.004 -0.447,-3.985 2.021,-7.626 5.868,-8.659 0.207,-0.055 0.353,0.025 0.421,0.078 0.105,0.081 0.158,0.189 0.158,0.323v7.327c0,0.829 0.671,1.5 1.5,1.5h2.5c0.829,0 1.5,-0.671 1.5,-1.5s-0.671,-1.5 -1.5,-1.5ZM21.685,17.267l-3.042,-0.507c-0.373,-0.062 -0.644,-0.382 -0.644,-0.76 0,-0.551 0.449,-1 1,-1h2.268c0.356,0 0.688,0.192 0.867,0.5 0.277,0.479 0.889,0.643 1.366,0.365 0.479,-0.277 0.642,-0.888 0.365,-1.366 -0.535,-0.925 -1.53,-1.499 -2.598,-1.499h-0.268c0,-0.553 -0.448,-1 -1,-1s-1,0.448 -1,1c-1.654,0 -3,1.346 -3,3 0,1.36 0.974,2.51 2.315,2.733l3.042,0.507c0.373,0.062 0.644,0.382 0.644,0.76 0,0.551 -0.449,1 -1,1h-2.268c-0.356,0 -0.688,-0.192 -0.867,-0.5 -0.276,-0.479 -0.889,-0.643 -1.366,-0.365 -0.479,0.277 -0.642,0.888 -0.365,1.366 0.535,0.925 1.53,1.499 2.598,1.499h0.268c0,0.553 0.448,1 1,1s1,-0.448 1,-1c1.654,0 3,-1.346 3,-3 0,-1.36 -0.974,-2.51 -2.315,-2.733Z" id="path_0"/></svg>