<svg id="vector" xmlns="http://www.w3.org/2000/svg" width="50" height="50" viewBox="0 0 24 24"><path fill="#FFFFFF" d="m21,23c0,0.553 -0.448,1 -1,1s-1,-0.447 -1,-1c0,-2.206 -1.794,-4 -4,-4h-6c-2.206,0 -4,1.794 -4,4 0,0.553 -0.448,1 -1,1s-1,-0.447 -1,-1c0,-3.309 2.691,-6 6,-6h6c3.309,0 6,2.691 6,6ZM22,7.5v2c0,0.827 -0.673,1.5 -1.5,1.5h-0.5c0,2.206 -1.794,4 -4,4h-8c-2.206,0 -4,-1.794 -4,-4h-0.5c-0.827,0 -1.5,-0.673 -1.5,-1.5v-2c0,-0.827 0.673,-1.5 1.5,-1.5h0.5c0,-2.206 1.794,-4 4,-4h3v-1c0,-0.553 0.448,-1 1,-1s1,0.447 1,1v1h3c2.206,0 4,1.794 4,4h0.5c0.827,0 1.5,0.673 1.5,1.5ZM18,6c0,-1.103 -0.897,-2 -2,-2h-8c-1.103,0 -2,0.897 -2,2v5c0,1.103 0.897,2 2,2h8c1.103,0 2,-0.897 2,-2v-5ZM9.5,7c-0.828,0 -1.5,0.672 -1.5,1.5s0.672,1.5 1.5,1.5 1.5,-0.672 1.5,-1.5 -0.672,-1.5 -1.5,-1.5ZM14.5,7c-0.828,0 -1.5,0.672 -1.5,1.5s0.672,1.5 1.5,1.5 1.5,-0.672 1.5,-1.5 -0.672,-1.5 -1.5,-1.5Z" id="path_0"/></svg>